<?xml version="1.0" encoding="utf-8"?>
<!-- Generator: Adobe Illustrator 21.0.2, SVG Export Plug-In . SVG Version: 6.00 Build 0)  -->
<svg version="1.1" id="Layer_1" xmlns="http://www.w3.org/2000/svg" xmlns:xlink="http://www.w3.org/1999/xlink" x="0px" y="0px"
	 viewBox="0 0 300 93.5" style="enable-background:new 0 0 300 93.5;" xml:space="preserve">
<g>
	<path d="M269.4,1.2h-31.8c-0.7,0-1.4,0.7-1.4,1.4v39.7L217,1.2h-20.3l-16,34.5l-16-34.5h-20.3l-16,34.5l-16-34.5H92.3l-20.4,44
		c-2.6-1-5.5-1.5-8.5-1.5c-9.3,0-17.4,5.1-21.7,12.7c-0.7,0.1-1.4,0.1-2.2,0.1c-9.8,0-17.9-7.2-17.9-19.1c0-12.1,8.3-19.1,17.9-19.1
		c8.6,0,14,4.5,15.7,11.5c0.4,1.3,1,1.9,2.1,1.9H75c1.3,0,2.1-1,2.1-1.9C77.1,14.1,62.5,0,39.6,0C17.4,0,0,15.9,0,37.4
		c0,21.8,17.3,37.3,39.4,37.4c2.8,10.7,12.5,18.7,24.1,18.7c13.8,0,24.9-11.2,24.9-24.9c0-1.6-0.2-3.1-0.4-4.6h30.3l3.5,8.1
		c0.6,1.3,1.1,1.6,2.5,1.6h20.3c0.7,0,1-0.5,1-0.8c0-0.4-0.2-1-0.5-1.4l-3.4-7.4h28.9L174,72c0.6,1.3,1.1,1.6,2.5,1.6h20.3
		c0.7,0,1-0.5,1-0.8c0-0.4-0.2-1-0.5-1.4l-3.4-7.4h24.8c-0.3,1.5-0.4,3-0.4,4.6c0,13.8,11.2,24.9,24.9,24.9S268,82.2,268,68.5
		c0-4.3-1.1-8.4-3-11.9h4.4c17.4,0,30.6-10.3,30.6-27.4C300,12.4,287.3,1.2,269.4,1.2z M63.4,80.3c-6.5,0-11.7-5.2-11.7-11.7
		c0-6.5,5.2-11.7,11.7-11.7c6.5,0,11.7,5.2,11.7,11.7C75.1,75,69.9,80.3,63.4,80.3z M94.1,46.8l3.3-7.4c1.9-4.5,4.7-13.8,4.7-13.8
		h0.7c0,0,2.8,9.3,4.7,13.8l3.3,7.4H94.1z M146.3,46.8l3.3-7.4c1.9-4.5,4.7-13.8,4.7-13.8h0.7c0,0,2.8,9.3,4.7,13.8l3.3,7.4H146.3z
		 M198.6,46.8l3.3-7.4c1.9-4.5,4.7-13.8,4.7-13.8h0.7c0,0,2.8,9.3,4.7,13.8l3.3,7.4H198.6z M243.1,80.2c-6.5,0-11.7-5.2-11.7-11.7
		c0-6.5,5.2-11.7,11.7-11.7s11.7,5.2,11.7,11.7C254.8,74.9,249.5,80.2,243.1,80.2z M267.2,39.4h-9.4V19.5h9.4c6.9,0,11,4.1,11,10
		C278.2,35.5,273.9,39.4,267.2,39.4z"/>
</g>
</svg>
